<svg enable-background="new 0 0 24 24" viewBox="0 0 24 24" xmlns="http://www.w3.org/2000/svg"><g id="timeline"/><g id="navigation"/><g id="align_center"/><g id="align_left_1_"/><g id="align_left"/><g id="more"/><g id="share"/><g id="music"/><g id="camera"/><g id="print"/><g id="wifi_1_"/><g id="setting"/><g id="composed"/><g id="password"/><g id="list"/><g id="voice"/><g id="open_folder"/><g id="refresh"/><g id="link"/><g id="attach"/><g id="email"/><g id="bookmark"/><g id="folder"/><g id="file"/><g id="notification"/><g id="galery"/><g id="delete_1_"/><g id="update"><g><path d="m21.8164 13.7725-1.9316-2.728c-.3193-.4497-.9424-.5586-1.3945-.2383l-2.7275 1.9312c-.4502.3188-.5576.9429-.2383 1.3936.3193.4502.9424.5581 1.3945.2383l.9135-.6468c-.1962.6644-.4961 1.2963-.9145 1.8675-1.1641 1.5894-2.9561 2.5005-4.918 2.5005-1.7808 0-3.4595-.7749-4.605-2.126-.3564-.4199-.9873-.4717-1.4097-.1157-.4209.3574-.4731.9883-.1157 1.4097 1.5264 1.7998 3.7607 2.832 6.1304 2.832 2.5684 0 5.0098-1.2407 6.5313-3.3188.5528-.7546.9509-1.5886 1.212-2.4656l.4403.6219c.1953.2754.5039.4224.8174.4224.1992 0 .4014-.0596.5771-.1841.4502-.3191.5576-.9432.2383-1.3938z"/><path d="m8.4756 9.8691c-.3198-.4511-.9439-.5581-1.3941-.2387l-.9137.6468c.196-.6646.4958-1.2963.9137-1.867 1.1641-1.5889 2.9566-2.5005 4.9185-2.5005 1.7813 0 3.46.7749 4.6055 2.126.3574.4204.9883.4731 1.4092.1157.4219-.3574.4736-.9883.1162-1.4097-1.5264-1.7998-3.7608-2.832-6.1309-2.832-2.5679 0-5.0098 1.2407-6.5317 3.3188-.5525.7544-.9504 1.5886-1.2114 2.4661l-.4405-.6223c-.3198-.4512-.9434-.5581-1.394-.2388s-.5576.9434-.2388 1.394l1.9312 2.728c.1953.2754.5039.4224.8174.4224.1997 0 .4014-.0596.5767-.1836l2.728-1.9312c.4506-.3193.5575-.9433.2387-1.394z"/></g></g><g id="upload"/><g id="download"/><g id="menu"/><g id="down"/><g id="up"/><g id="backward"/><g id="forward"/><g id="zoom_out"/><g id="zoom_in"/><g id="search"/><g id="home"/><g id="user"/><g id="guide"/></svg>